<svg width="654" height="597" viewBox="0 0 654 597" fill="none" xmlns="http://www.w3.org/2000/svg">
<path d="M323.982 597C488.872 597 622.541 589.192 622.541 579.562C622.541 569.931 488.872 562.124 323.982 562.124C159.092 562.124 25.4229 569.931 25.4229 579.562C25.4229 589.192 159.092 597 323.982 597Z" fill="#919EAB" fill-opacity="0.08"/>
<path d="M247.608 215.808C254.32 217.936 258.853 224.203 258.771 231.244L256.814 400.516C250.472 451.787 172.199 494.066 149.017 505.526C144.929 507.547 140.25 507.546 136.161 505.524C112.982 494.061 34.7216 451.773 28.3792 400.516L26.3197 231.109C26.2349 224.132 30.6811 217.905 37.3076 215.72L135.335 183.393C138.529 182.339 141.974 182.32 145.181 183.336L247.608 215.808Z" fill="#22B8CF"/>
<path opacity="0.48" d="M232.73 227.273C239.444 229.398 243.979 235.664 243.9 242.707L242.201 393.43C236.745 437.55 170.222 474.034 149.03 484.6C144.948 486.634 140.23 486.634 136.148 484.6C114.956 474.034 48.4331 437.55 42.9768 393.43L41.1623 242.575C41.0783 235.596 45.528 229.367 52.1576 227.185L135.634 199.702C138.824 198.651 142.264 198.632 145.466 199.645L232.73 227.273Z" fill="#116E95"/>
<path d="M605.044 158.281H423.66C417.033 158.281 411.66 163.654 411.66 170.281V506.807C411.66 513.435 417.033 518.807 423.66 518.807H605.044C611.671 518.807 617.044 513.435 617.044 506.807V170.281C617.044 163.654 611.671 158.281 605.044 158.281Z" fill="#F4F6F8"/>
<path opacity="0.72" d="M590.629 172.852H438.78C432.152 172.852 426.78 178.224 426.78 184.852V492.922C426.78 499.55 432.152 504.922 438.78 504.922H590.629C597.256 504.922 602.629 499.55 602.629 492.922V184.852C602.629 178.224 597.256 172.852 590.629 172.852Z" fill="#DFE3E8"/>
<path d="M429.415 461.286C429.415 460.673 429.658 460.085 430.091 459.652C430.524 459.219 431.112 458.975 431.725 458.975C432.337 458.975 432.925 459.219 433.358 459.652C433.791 460.085 434.034 460.673 434.034 461.286C434.034 461.899 433.791 462.486 433.358 462.92C432.925 463.353 432.337 463.597 431.725 463.597C431.112 463.597 430.524 463.353 430.091 462.92C429.658 462.486 429.415 461.899 429.415 461.286ZM429.415 404.551C429.415 403.938 429.658 403.351 430.091 402.917C430.524 402.484 431.112 402.241 431.725 402.241C432.337 402.241 432.925 402.484 433.358 402.917C433.791 403.351 434.034 403.938 434.034 404.551C434.034 405.164 433.791 405.752 433.358 406.185C432.925 406.618 432.337 406.862 431.725 406.862C431.112 406.862 430.524 406.618 430.091 406.185C429.658 405.752 429.415 405.164 429.415 404.551ZM429.415 347.801C429.415 347.188 429.658 346.601 430.091 346.167C430.524 345.734 431.112 345.491 431.725 345.491C432.337 345.491 432.925 345.734 433.358 346.167C433.791 346.601 434.034 347.188 434.034 347.801C434.034 348.414 433.791 349.002 433.358 349.435C432.925 349.868 432.337 350.112 431.725 350.112C431.112 350.112 430.524 349.868 430.091 349.435C429.658 349.002 429.415 348.414 429.415 347.801ZM429.415 291.051C429.415 290.438 429.658 289.851 430.091 289.417C430.524 288.984 431.112 288.74 431.725 288.74C432.337 288.74 432.925 288.984 433.358 289.417C433.791 289.851 434.034 290.438 434.034 291.051C434.034 291.664 433.791 292.252 433.358 292.685C432.925 293.118 432.337 293.362 431.725 293.362C431.112 293.362 430.524 293.118 430.091 292.685C429.658 292.252 429.415 291.664 429.415 291.051ZM429.415 234.317C429.415 233.704 429.658 233.116 430.091 232.683C430.524 232.249 431.112 232.006 431.725 232.006C432.337 232.006 432.925 232.249 433.358 232.683C433.791 233.116 434.034 233.704 434.034 234.317C434.034 234.929 433.791 235.517 433.358 235.95C432.925 236.384 432.337 236.627 431.725 236.627C431.112 236.627 430.524 236.384 430.091 235.95C429.658 235.517 429.415 234.929 429.415 234.317Z" fill="#C4CDD5"/>
<path d="M594.377 461.286C594.377 460.673 594.621 460.085 595.054 459.652C595.487 459.219 596.075 458.975 596.687 458.975C597.3 458.975 597.887 459.219 598.32 459.652C598.754 460.085 598.997 460.673 598.997 461.286C598.997 461.899 598.754 462.486 598.32 462.92C597.887 463.353 597.3 463.597 596.687 463.597C596.075 463.597 595.487 463.353 595.054 462.92C594.621 462.486 594.377 461.899 594.377 461.286ZM594.377 404.551C594.377 403.938 594.621 403.351 595.054 402.917C595.487 402.484 596.075 402.241 596.687 402.241C597.3 402.241 597.887 402.484 598.32 402.917C598.754 403.351 598.997 403.938 598.997 404.551C598.997 405.164 598.754 405.752 598.32 406.185C597.887 406.618 597.3 406.862 596.687 406.862C596.075 406.862 595.487 406.618 595.054 406.185C594.621 405.752 594.377 405.164 594.377 404.551ZM594.377 347.801C594.377 347.188 594.621 346.601 595.054 346.167C595.487 345.734 596.075 345.491 596.687 345.491C597.3 345.491 597.887 345.734 598.32 346.167C598.754 346.601 598.997 347.188 598.997 347.801C598.997 348.414 598.754 349.002 598.32 349.435C597.887 349.868 597.3 350.112 596.687 350.112C596.075 350.112 595.487 349.868 595.054 349.435C594.621 349.002 594.377 348.414 594.377 347.801ZM594.377 291.051C594.377 290.438 594.621 289.851 595.054 289.417C595.487 288.984 596.075 288.74 596.687 288.74C597.3 288.74 597.887 288.984 598.32 289.417C598.754 289.851 598.997 290.438 598.997 291.051C598.997 291.664 598.754 292.252 598.32 292.685C597.887 293.118 597.3 293.362 596.687 293.362C596.075 293.362 595.487 293.118 595.054 292.685C594.621 292.252 594.377 291.664 594.377 291.051ZM594.377 234.317C594.377 233.704 594.621 233.116 595.054 232.683C595.487 232.249 596.075 232.006 596.687 232.006C597.3 232.006 597.887 232.249 598.32 232.683C598.754 233.116 598.997 233.704 598.997 234.317C598.997 234.929 598.754 235.517 598.32 235.95C597.887 236.384 597.3 236.627 596.687 236.627C596.075 236.627 595.487 236.384 595.054 235.95C594.621 235.517 594.377 234.929 594.377 234.317Z" fill="#C4CDD5"/>
<path d="M298.436 50.2311H227.496L231.361 6.00488H302.301L298.436 50.2311Z" fill="#919EAB"/>
<path d="M299.868 0L297.928 23.0913L295.988 50.8501H227.757L231.638 0H299.868Z" fill="#F4F6F8"/>
<path d="M294.325 6.99555L298.19 51.2218H227.265L223.4 6.99555H229.421L231.53 3.68359H250.64L253.381 6.99555H294.325Z" fill="#C4CDD5"/>
<path d="M408.38 60.1074H332.897V135.62H408.38V60.1074Z" fill="#F4F6F8"/>
<path d="M410.29 60.1074H408.365V135.62H410.29V60.1074Z" fill="#C4CDD5"/>
<path d="M401.389 67.0996H339.857V128.656H401.389V67.0996Z" fill="#DFE3E8"/>
<path d="M340.443 67.0996H339.873V128.656H340.443V67.0996Z" fill="#C4CDD5"/>
<g opacity="0.72">
<path d="M371.209 106.767C377.834 106.767 383.204 99.9249 383.204 91.4853C383.204 83.0457 377.834 76.2041 371.209 76.2041C364.584 76.2041 359.213 83.0457 359.213 91.4853C359.213 99.9249 364.584 106.767 371.209 106.767Z" fill="#919EAB"/>
<path d="M393.998 128.657H347.68V124.344C347.68 122.394 348.064 120.463 348.81 118.661C349.556 116.86 350.649 115.223 352.028 113.844C353.406 112.465 355.043 111.371 356.844 110.625C358.644 109.878 360.575 109.494 362.524 109.494H379.154C381.104 109.494 383.034 109.878 384.835 110.625C386.636 111.371 388.272 112.465 389.651 113.844C391.029 115.223 392.122 116.86 392.868 118.661C393.614 120.463 393.998 122.394 393.998 124.344V128.657Z" fill="#919EAB"/>
<path d="M346.463 102.963C346.463 105.474 351.083 107.585 351.083 107.585C351.083 107.585 355.702 105.536 355.702 102.963C355.702 101.762 354.024 101.084 352.946 101.423C352.531 101.58 352.152 101.819 351.832 102.126C351.512 102.433 351.257 102.802 351.083 103.21C350.493 102.415 349.716 101.78 348.819 101.361C348.558 101.262 348.277 101.228 347.999 101.26C347.722 101.293 347.456 101.392 347.225 101.549C346.994 101.707 346.804 101.917 346.671 102.163C346.539 102.409 346.468 102.684 346.463 102.963Z" fill="#919EAB"/>
<path d="M387.5 91.7329C387.5 95.0449 393.49 97.7252 393.49 97.7252C393.49 97.7252 399.48 95.0449 399.48 91.7329C399.48 90.1925 397.278 89.2836 395.862 89.6841C394.805 90.1064 393.954 90.9243 393.49 91.964C392.713 90.9222 391.693 90.0866 390.518 89.5301C390.171 89.4072 389.8 89.3708 389.436 89.424C389.072 89.4771 388.726 89.6183 388.429 89.8353C388.131 90.0523 387.891 90.3385 387.73 90.6692C387.568 90.9998 387.489 91.3649 387.5 91.7329Z" fill="#919EAB"/>
</g>
<path d="M180.361 136.406C176.817 136.904 173.206 136.34 169.982 134.785C166.759 133.23 164.069 130.753 162.253 127.669C160.437 124.584 159.575 121.03 159.778 117.456C159.981 113.881 161.239 110.448 163.393 107.589C165.546 104.73 168.499 102.574 171.878 101.393C175.256 100.213 178.909 100.062 182.373 100.958C185.838 101.855 188.959 103.759 191.342 106.43C193.724 109.101 195.262 112.419 195.76 115.964C196.414 120.716 195.162 125.533 192.277 129.364C189.391 133.194 185.107 135.726 180.361 136.406ZM176.681 110.08C175.028 110.326 173.485 111.056 172.247 112.178C171.008 113.3 170.129 114.763 169.719 116.384C169.31 118.005 169.389 119.71 169.947 121.286C170.504 122.862 171.515 124.238 172.852 125.24C174.19 126.242 175.793 126.826 177.462 126.919C179.13 127.011 180.789 126.608 182.228 125.76C183.668 124.911 184.825 123.656 185.553 122.151C186.281 120.647 186.548 118.96 186.32 117.304C186.168 116.194 185.796 115.125 185.228 114.16C184.659 113.194 183.905 112.351 183.008 111.679C182.112 111.007 181.091 110.52 180.005 110.245C178.919 109.971 177.789 109.914 176.681 110.08Z" fill="#DFE3E8"/>
<path d="M173.56 64.4945L166.759 65.4448L172.869 109.215L179.67 108.265L173.56 64.4945Z" fill="#DFE3E8"/>
<path d="M179.194 58.543L166.435 60.3481L167.396 67.1498L180.156 65.3447L179.194 58.543Z" fill="#DFE3E8"/>
<path d="M180.391 67.6333L168.389 69.3079L169.338 76.1124L181.34 74.4378L180.391 67.6333Z" fill="#DFE3E8"/>
<path d="M182.141 79.9831L171.663 81.445L172.612 88.2495L183.089 86.7876L182.141 79.9831Z" fill="#DFE3E8"/>
<path d="M166.088 289.97C180.284 275.134 178.675 250.545 162.494 235.049C146.313 219.553 121.687 219.017 107.491 233.853C93.2943 248.688 94.9033 273.277 111.084 288.773C127.266 304.269 151.891 304.805 166.088 289.97Z" fill="#FA541C"/>
<path d="M166.088 289.97C180.284 275.134 178.675 250.545 162.494 235.049C146.313 219.553 121.687 219.017 107.491 233.853C93.2943 248.688 94.9033 273.277 111.084 288.773C127.266 304.269 151.891 304.805 166.088 289.97Z" fill="#22B8CF"/>
<path d="M148.148 261.23C147.821 261.229 147.503 261.123 147.24 260.93C146.977 260.736 146.783 260.463 146.685 260.152C146.065 258.221 144.861 256.532 143.239 255.318C141.616 254.103 139.656 253.424 137.63 253.374C137.222 253.374 136.83 253.211 136.542 252.922C136.253 252.634 136.091 252.242 136.091 251.833C136.091 251.425 136.253 251.033 136.542 250.744C136.83 250.455 137.222 250.293 137.63 250.293C140.31 250.351 142.904 251.243 145.054 252.844C147.203 254.445 148.801 256.676 149.626 259.227C149.688 259.421 149.71 259.626 149.693 259.829C149.675 260.032 149.617 260.23 149.523 260.41C149.428 260.591 149.299 260.751 149.142 260.881C148.985 261.011 148.804 261.109 148.61 261.168C148.46 261.212 148.304 261.233 148.148 261.23Z" fill="#D2FCF4"/>
<path d="M141.388 294.551C137.946 294.536 134.528 293.985 131.256 292.918C131.063 292.857 130.884 292.758 130.729 292.627C130.574 292.496 130.446 292.336 130.353 292.155C130.261 291.975 130.204 291.778 130.187 291.576C130.17 291.374 130.193 291.171 130.255 290.977C130.317 290.784 130.416 290.605 130.547 290.45C130.677 290.295 130.837 290.168 131.018 290.075C131.198 289.982 131.395 289.925 131.597 289.908C131.799 289.891 132.002 289.914 132.195 289.976C141.665 293.057 151.12 291.332 158.141 285.355C161.698 282.218 164.384 278.216 165.941 273.736C167.498 269.257 167.871 264.45 167.026 259.783C166.994 259.581 167.002 259.374 167.049 259.175C167.097 258.976 167.183 258.788 167.303 258.622C167.423 258.456 167.575 258.315 167.749 258.208C167.924 258.101 168.117 258.029 168.32 257.996C168.522 257.964 168.728 257.972 168.928 258.019C169.127 258.067 169.315 258.153 169.481 258.273C169.646 258.394 169.787 258.545 169.894 258.72C170.002 258.894 170.073 259.088 170.106 259.29C171.027 264.476 170.594 269.811 168.848 274.78C167.103 279.748 164.104 284.181 160.143 287.65C154.933 292.147 148.269 294.599 141.388 294.551Z" fill="#D2FCF4"/>
<path d="M125.99 290.528C125.736 290.535 125.485 290.471 125.266 290.343C120.547 287.817 116.451 284.268 113.278 279.956C110.105 275.644 107.935 270.677 106.926 265.419C105.949 260.87 105.995 256.161 107.06 251.632C108.125 247.103 110.184 242.867 113.086 239.231C113.346 238.927 113.714 238.736 114.112 238.698C114.51 238.66 114.907 238.779 115.22 239.03C115.532 239.28 115.734 239.642 115.785 240.039C115.835 240.436 115.728 240.837 115.488 241.157C112.864 244.443 111.006 248.274 110.049 252.37C109.093 256.466 109.062 260.724 109.96 264.834C110.876 269.643 112.856 274.187 115.755 278.131C118.654 282.076 122.398 285.322 126.713 287.632C127.014 287.795 127.253 288.053 127.391 288.366C127.529 288.679 127.559 289.029 127.476 289.361C127.393 289.693 127.202 289.988 126.933 290.2C126.664 290.411 126.332 290.527 125.99 290.528Z" fill="#D2FCF4"/>
<path d="M167.303 255.84C166.964 255.856 166.629 255.758 166.35 255.563C166.071 255.368 165.865 255.086 165.764 254.762C164.347 250.389 162.03 246.363 158.961 242.943C155.892 239.523 152.14 236.784 147.948 234.905C147.572 234.744 147.276 234.44 147.124 234.06C146.973 233.68 146.978 233.255 147.139 232.88C147.301 232.504 147.605 232.207 147.984 232.056C148.364 231.904 148.788 231.909 149.164 232.071C153.76 234.129 157.874 237.127 161.24 240.874C164.605 244.62 167.148 249.031 168.705 253.822C168.824 254.188 168.802 254.586 168.642 254.937C168.482 255.288 168.197 255.566 167.842 255.717C167.672 255.79 167.489 255.832 167.303 255.84Z" fill="#D2FCF4"/>
<path d="M118.706 237.538C118.464 237.54 118.225 237.486 118.009 237.379C117.792 237.272 117.604 237.115 117.459 236.922C117.338 236.759 117.251 236.574 117.202 236.378C117.153 236.181 117.143 235.977 117.173 235.776C117.203 235.576 117.272 235.384 117.377 235.21C117.481 235.037 117.619 234.885 117.782 234.765C122.96 231.039 129.206 229.094 135.583 229.22C135.991 229.22 136.383 229.382 136.671 229.671C136.96 229.96 137.122 230.352 137.122 230.76C137.122 231.169 136.96 231.56 136.671 231.849C136.383 232.138 135.991 232.301 135.583 232.301C129.868 232.177 124.266 233.906 119.614 237.23C119.352 237.427 119.034 237.535 118.706 237.538Z" fill="#D2FCF4"/>
<path d="M143.02 233.159H142.666C140.349 232.619 137.978 232.345 135.598 232.343C135.19 232.343 134.798 232.181 134.509 231.892C134.221 231.603 134.058 231.211 134.058 230.802C134.058 230.394 134.221 230.002 134.509 229.713C134.798 229.424 135.19 229.262 135.598 229.262C138.191 229.269 140.774 229.574 143.297 230.171C143.706 230.218 144.079 230.425 144.334 230.747C144.59 231.069 144.707 231.48 144.66 231.888C144.613 232.297 144.406 232.67 144.084 232.926C143.762 233.181 143.352 233.299 142.943 233.252L143.02 233.159Z" fill="#D2FCF4"/>
<path d="M115.873 269.964C115.558 269.965 115.251 269.87 114.992 269.691C114.733 269.512 114.535 269.258 114.425 268.963C112.982 265.236 112.474 261.213 112.943 257.244C113.413 253.275 114.847 249.482 117.12 246.195C119.273 243.084 122.157 240.55 125.519 238.814C128.88 237.079 132.616 236.197 136.399 236.244C136.807 236.244 137.199 236.406 137.488 236.695C137.776 236.984 137.939 237.376 137.939 237.784C137.939 238.193 137.776 238.585 137.488 238.874C137.199 239.163 136.807 239.325 136.399 239.325C133.109 239.293 129.862 240.068 126.941 241.583C124.02 243.097 121.515 245.305 119.645 248.013C117.667 250.899 116.42 254.223 116.012 257.698C115.604 261.174 116.048 264.696 117.305 267.962C117.444 268.344 117.427 268.766 117.257 269.135C117.087 269.504 116.777 269.791 116.396 269.934C116.225 269.974 116.048 269.984 115.873 269.964Z" fill="#D2FCF4"/>
<path d="M140.295 287.553C135.68 287.396 131.171 286.128 127.15 283.857C123.129 281.586 119.715 278.378 117.197 274.506C117.087 274.336 117.011 274.146 116.974 273.947C116.938 273.747 116.94 273.543 116.983 273.345C117.025 273.147 117.105 272.959 117.22 272.792C117.335 272.625 117.481 272.482 117.651 272.372C117.821 272.262 118.011 272.186 118.21 272.149C118.409 272.113 118.614 272.115 118.812 272.158C119.01 272.2 119.198 272.281 119.364 272.395C119.531 272.51 119.674 272.657 119.784 272.827C122.017 276.276 125.049 279.135 128.622 281.163C132.196 283.19 136.205 284.325 140.31 284.472C140.718 284.472 141.11 284.635 141.399 284.924C141.688 285.212 141.85 285.604 141.85 286.013C141.85 286.421 141.688 286.813 141.399 287.102C141.11 287.391 140.718 287.553 140.31 287.553H140.295Z" fill="#D2FCF4"/>
<path d="M146.038 286.89C145.63 286.939 145.219 286.824 144.895 286.57C144.572 286.315 144.363 285.943 144.314 285.535C144.265 285.126 144.38 284.715 144.634 284.391C144.888 284.068 145.26 283.858 145.669 283.809C158.157 280.728 161.39 269.776 160.374 261.365C159.035 250.397 150.365 239.29 136.399 239.275C135.991 239.275 135.599 239.113 135.31 238.824C135.021 238.535 134.859 238.143 134.859 237.734C134.859 237.326 135.021 236.934 135.31 236.645C135.599 236.356 135.991 236.194 136.399 236.194C152.151 236.194 161.914 248.672 163.408 260.995C164.948 273.704 158.28 283.84 146.469 286.798L146.038 286.89Z" fill="#D2FCF4"/>
<path d="M130.116 247.83C129.764 247.832 129.422 247.713 129.146 247.493C128.871 247.273 128.68 246.965 128.604 246.621C128.528 246.276 128.573 245.917 128.731 245.601C128.888 245.286 129.149 245.034 129.47 244.888C131.818 243.815 134.371 243.264 136.953 243.271C137.362 243.271 137.753 243.433 138.042 243.722C138.331 244.011 138.493 244.402 138.493 244.811C138.493 245.22 138.331 245.611 138.042 245.9C137.753 246.189 137.362 246.351 136.953 246.351C134.828 246.351 132.727 246.808 130.794 247.692C130.581 247.786 130.349 247.833 130.116 247.83Z" fill="#D2FCF4"/>
<path d="M140.002 280.36C136.104 280.298 132.305 279.119 129.057 276.962C125.809 274.804 123.248 271.76 121.678 268.19C118.475 261.243 119.414 253.987 124.172 248.75C124.448 248.448 124.832 248.267 125.241 248.248C125.65 248.23 126.049 248.374 126.351 248.65C126.653 248.926 126.834 249.31 126.853 249.719C126.871 250.128 126.727 250.527 126.451 250.83C124.539 252.995 123.327 255.688 122.972 258.555C122.618 261.423 123.138 264.33 124.465 266.896C125.827 270.007 128.073 272.649 130.922 274.494C133.772 276.34 137.1 277.308 140.495 277.279C143.064 277.258 145.573 276.495 147.72 275.082C149.867 273.669 151.561 271.667 152.598 269.315C153.765 266.529 154.116 263.469 153.612 260.491C153.108 257.513 151.768 254.739 149.749 252.493C149.619 252.339 149.52 252.16 149.458 251.967C149.397 251.774 149.374 251.571 149.391 251.369C149.409 251.167 149.465 250.971 149.558 250.791C149.651 250.611 149.779 250.452 149.934 250.321C150.245 250.062 150.646 249.936 151.05 249.971C151.453 250.006 151.827 250.198 152.09 250.506C154.486 253.185 156.071 256.49 156.66 260.036C157.249 263.582 156.817 267.222 155.416 270.532C154.153 273.425 152.081 275.891 149.451 277.634C146.82 279.378 143.742 280.324 140.587 280.36H140.002Z" fill="#D2FCF4"/>
<path d="M146.5 249.186C146.205 249.185 145.916 249.099 145.669 248.939C143.07 247.261 140.046 246.363 136.953 246.351C136.545 246.351 136.153 246.189 135.864 245.9C135.575 245.611 135.413 245.219 135.413 244.811C135.413 244.402 135.575 244.011 135.864 243.722C136.153 243.433 136.545 243.271 136.953 243.271C140.636 243.284 144.238 244.353 147.332 246.351C147.674 246.572 147.915 246.92 148.002 247.319C148.088 247.717 148.013 248.134 147.794 248.477C147.654 248.694 147.463 248.873 147.237 248.996C147.011 249.12 146.758 249.185 146.5 249.186Z" fill="#D2FCF4"/>
<path d="M139.232 273.429C137.433 273.417 135.658 273.011 134.033 272.239C132.407 271.468 130.971 270.349 129.824 268.962C128.341 267.269 127.379 265.183 127.054 262.956C126.729 260.728 127.054 258.454 127.991 256.408C128.818 254.549 130.172 252.974 131.886 251.878C133.599 250.783 135.597 250.215 137.631 250.246C138.039 250.246 138.431 250.408 138.719 250.697C139.008 250.986 139.17 251.378 139.17 251.786C139.17 252.195 139.008 252.587 138.719 252.875C138.431 253.164 138.039 253.327 137.631 253.327C136.191 253.302 134.776 253.699 133.559 254.468C132.341 255.237 131.375 256.345 130.778 257.655C130.105 259.169 129.879 260.844 130.128 262.482C130.376 264.12 131.088 265.652 132.18 266.898C133.272 268.231 134.719 269.228 136.354 269.773C137.989 270.319 139.745 270.39 141.419 269.979C142.779 269.671 144.023 268.979 145.003 267.985C145.983 266.991 146.657 265.737 146.947 264.372C147.035 263.977 147.275 263.633 147.615 263.414C147.955 263.195 148.368 263.118 148.764 263.201C148.962 263.243 149.15 263.324 149.317 263.439C149.484 263.554 149.627 263.701 149.737 263.871C149.847 264.041 149.923 264.232 149.959 264.431C149.996 264.631 149.992 264.836 149.949 265.034C149.543 266.963 148.594 268.735 147.213 270.14C145.832 271.546 144.078 272.527 142.158 272.967C141.205 273.239 140.222 273.394 139.232 273.429Z" fill="#D2FCF4"/>
<path d="M139.601 267.02C139.193 267.02 138.801 266.858 138.513 266.569C138.224 266.28 138.062 265.889 138.062 265.48C138.062 265.071 138.224 264.68 138.513 264.391C138.801 264.102 139.193 263.94 139.601 263.94C139.812 263.94 140.02 263.897 140.213 263.814C140.406 263.731 140.58 263.609 140.724 263.456C140.869 263.303 140.98 263.122 141.052 262.925C141.123 262.727 141.154 262.517 141.141 262.307C141.152 262.008 141.102 261.709 140.996 261.43C140.889 261.15 140.728 260.894 140.521 260.677C140.315 260.461 140.067 260.287 139.793 260.168C139.519 260.048 139.223 259.985 138.924 259.981C138.698 259.987 138.476 260.037 138.269 260.13C138.063 260.222 137.878 260.355 137.723 260.52C137.562 260.704 137.441 260.92 137.367 261.153C137.292 261.386 137.267 261.632 137.292 261.875C137.304 262.078 137.276 262.28 137.21 262.472C137.144 262.663 137.04 262.84 136.906 262.992C136.772 263.143 136.609 263.267 136.427 263.356C136.244 263.444 136.046 263.496 135.844 263.508C135.436 263.533 135.034 263.394 134.728 263.122C134.422 262.851 134.237 262.469 134.212 262.06C134.157 261.406 134.237 260.748 134.449 260.126C134.66 259.505 134.998 258.934 135.44 258.449C135.883 257.965 136.421 257.577 137.02 257.31C137.62 257.044 138.268 256.904 138.924 256.9C139.628 256.902 140.325 257.044 140.974 257.317C141.623 257.591 142.211 257.991 142.703 258.494C143.196 258.998 143.584 259.594 143.845 260.248C144.105 260.903 144.233 261.602 144.221 262.307C144.233 262.921 144.123 263.532 143.896 264.104C143.67 264.675 143.331 265.195 142.901 265.634C142.471 266.073 141.957 266.422 141.391 266.66C140.824 266.898 140.216 267.021 139.601 267.02Z" fill="#D2FCF4"/>
<path d="M179.283 261.878C181.162 283.337 165.302 300.728 143.867 300.728C143.313 300.728 142.758 300.728 142.204 300.728C162.622 299.681 177.436 282.705 175.619 261.924C174.572 251.752 169.962 242.277 162.603 235.178C155.245 228.079 145.613 223.813 135.413 223.136C135.968 223.136 136.522 223.136 137.076 223.136C158.511 223.059 177.42 240.451 179.283 261.878Z" fill="#FA541C"/>
<path d="M179.283 261.878C181.162 283.337 165.302 300.728 143.867 300.728C143.313 300.728 142.758 300.728 142.204 300.728C162.622 299.681 177.436 282.705 175.619 261.924C174.572 251.752 169.962 242.277 162.603 235.178C155.245 228.079 145.613 223.813 135.413 223.136C135.968 223.136 136.522 223.136 137.076 223.136C158.511 223.059 177.42 240.451 179.283 261.878Z" fill="#063963"/>
<path d="M210.665 72.5535C210.708 73.0137 210.775 73.4713 210.865 73.9245C211.447 76.8887 212.964 79.5882 215.192 81.6267C217.733 84.0062 221.075 85.3424 224.554 85.37H354.655C356.173 85.3986 357.682 85.1254 359.094 84.5663C360.506 84.0072 361.792 83.1733 362.88 82.1129C363.967 81.0525 364.833 79.7868 365.427 78.3891C366.022 76.9915 366.333 75.4896 366.343 73.9707C366.343 73.524 366.343 73.0619 366.343 72.5997C365.986 69.1481 364.381 65.9461 361.828 63.5967C359.275 61.2474 355.952 59.9129 352.484 59.8448H222.322C220.692 59.814 219.074 60.1303 217.575 60.7725C216.077 61.4147 214.732 62.3683 213.629 63.5701C212.527 64.7718 211.693 66.1942 211.182 67.743C210.671 69.2917 210.495 70.9315 210.665 72.5535Z" fill="#FDAB76"/>
<path d="M366.343 73.9409C366.343 74.3534 366.312 74.7654 366.251 75.1733C365.792 71.8023 364.142 68.7069 361.6 66.4466C359.059 64.1864 355.792 62.9105 352.392 62.8497L214.038 63.1578C216.244 61.0088 219.212 59.8233 222.291 59.8612H352.377C355.843 59.9359 359.162 61.2726 361.714 63.6207C364.265 65.9688 365.872 69.1671 366.235 72.6161C366.293 73.0557 366.329 73.4978 366.343 73.9409Z" fill="#FA541C"/>
<path d="M343.938 65.9608L344.477 72.1226L350.267 69.966L351.653 73.0469L345.724 75.0186L349.974 80.2407L347.326 82.2125L343.184 76.7747L340.104 82.2125L337.194 80.2407L340.474 75.0186L334.314 73.0469L335.161 69.966L341.321 72.0456L340.782 65.8838L343.938 65.9608Z" fill="#B3200E"/>
<path d="M308.352 65.9627L308.891 72.1245L314.697 69.9679L316.067 73.0488L310.139 75.0206L314.404 80.2427L311.74 82.2144L307.598 76.7767L304.518 82.2144L301.608 80.2427L304.888 75.0668L298.728 73.095L299.56 70.0141L305.719 72.0937L305.18 65.9319L308.352 65.9627Z" fill="#B3200E"/>
<path d="M272.767 65.9608L273.321 72.1226L279.111 69.966L280.481 73.0469L274.568 75.0186L278.818 80.2407L276.154 82.2125L272.012 76.7747L268.932 82.2125L266.022 80.2407L269.302 75.0186L263.143 73.0469L263.974 69.966L270.134 72.0456L269.595 65.8838L272.767 65.9608Z" fill="#B3200E"/>
<path d="M237.135 65.9627L237.674 72.1245L243.464 69.9679L244.85 73.0488L238.921 75.0206L243.294 80.2889L240.646 82.2607L236.504 76.8229L233.424 82.2607L230.498 80.2889L233.794 75.0668L227.634 73.095L228.481 70.0141L234.641 72.0937L234.102 65.9319L237.135 65.9627Z" fill="#B3200E"/>
<path d="M551.554 111.222L545.241 183.315C545.054 185.441 544.121 187.433 542.608 188.937C541.756 189.836 540.732 190.554 539.597 191.048C538.462 191.543 537.24 191.805 536.002 191.818H486.003C484.921 191.824 483.85 191.601 482.86 191.165C481.869 190.729 480.982 190.089 480.255 189.287C479.529 188.484 478.98 187.538 478.643 186.509C478.307 185.48 478.192 184.391 478.304 183.315L484.618 111.268C484.851 108.965 485.92 106.828 487.623 105.261C489.325 103.694 491.543 102.806 493.857 102.765H543.855C544.933 102.76 546 102.981 546.987 103.414C547.974 103.848 548.859 104.483 549.584 105.281C550.31 106.078 550.861 107.019 551.2 108.042C551.539 109.065 551.66 110.149 551.554 111.222Z" fill="#FEE9D1"/>
<path d="M489.16 122.833H489.037C488.631 122.798 488.255 122.603 487.993 122.291C487.73 121.979 487.602 121.576 487.636 121.17L488.206 114.577C488.24 114.193 488.418 113.835 488.703 113.576C488.988 113.316 489.36 113.173 489.745 113.175H496.69C497.098 113.175 497.49 113.337 497.779 113.626C498.068 113.915 498.23 114.307 498.23 114.715C498.23 115.124 498.068 115.516 497.779 115.805C497.49 116.093 497.098 116.256 496.69 116.256H491.208L490.762 121.432C490.726 121.827 490.54 122.193 490.242 122.454C489.944 122.715 489.556 122.851 489.16 122.833Z" fill="#FA541C"/>
<path d="M545.103 122.833C544.697 122.798 544.321 122.603 544.058 122.291C543.796 121.979 543.667 121.576 543.701 121.17L544.133 116.256H538.851C538.442 116.256 538.051 116.093 537.762 115.805C537.473 115.516 537.311 115.124 537.311 114.715C537.311 114.307 537.473 113.915 537.762 113.626C538.051 113.337 538.442 113.175 538.851 113.175H545.811C546.025 113.174 546.238 113.218 546.434 113.304C546.631 113.39 546.807 113.516 546.952 113.674C547.097 113.832 547.207 114.019 547.276 114.222C547.345 114.425 547.37 114.64 547.351 114.854L546.642 121.416C546.611 121.803 546.436 122.164 546.15 122.427C545.865 122.689 545.491 122.835 545.103 122.833Z" fill="#FA541C"/>
<path d="M491.763 172.532H484.818C484.604 172.534 484.392 172.491 484.196 172.406C484 172.321 483.824 172.196 483.678 172.039C483.534 171.882 483.424 171.697 483.356 171.496C483.287 171.294 483.26 171.081 483.278 170.869L483.863 164.275C483.88 164.073 483.937 163.876 484.031 163.696C484.124 163.516 484.252 163.355 484.407 163.225C484.562 163.094 484.741 162.995 484.935 162.933C485.128 162.872 485.332 162.849 485.534 162.866C485.736 162.883 485.933 162.94 486.113 163.033C486.294 163.127 486.454 163.254 486.584 163.41C486.715 163.565 486.814 163.744 486.876 163.938C486.937 164.131 486.96 164.335 486.943 164.537L486.512 169.451H491.778C492.186 169.451 492.578 169.614 492.867 169.902C493.156 170.191 493.318 170.583 493.318 170.992C493.318 171.4 493.156 171.792 492.867 172.081C492.578 172.37 492.186 172.532 491.778 172.532H491.763Z" fill="#FA541C"/>
<path d="M540.806 172.53H533.846C533.438 172.53 533.046 172.368 532.757 172.079C532.469 171.79 532.306 171.398 532.306 170.99C532.306 170.581 532.469 170.189 532.757 169.901C533.046 169.612 533.438 169.449 533.846 169.449H539.39L539.852 164.273C539.887 163.867 540.082 163.491 540.393 163.229C540.705 162.966 541.108 162.837 541.515 162.872C541.921 162.907 542.296 163.102 542.559 163.414C542.822 163.726 542.95 164.129 542.916 164.535L542.331 171.128C542.296 171.51 542.121 171.865 541.839 172.124C541.557 172.383 541.189 172.528 540.806 172.53Z" fill="#FA541C"/>
<path d="M535.495 147.712C538.972 134.226 533.004 121.027 522.167 118.231C511.33 115.436 499.727 124.102 496.251 137.587C492.774 151.073 498.742 164.272 509.579 167.068C520.416 169.863 532.019 161.197 535.495 147.712Z" fill="#FDAB76"/>
<path d="M545.241 183.315C545.054 185.441 544.121 187.433 542.608 188.938C541.756 189.836 540.732 190.554 539.597 191.049C538.462 191.544 537.24 191.805 536.002 191.818H486.003C484.921 191.824 483.85 191.602 482.86 191.166C481.869 190.73 480.982 190.089 480.255 189.287C479.529 188.485 478.98 187.538 478.643 186.509C478.307 185.48 478.192 184.392 478.304 183.315C478.304 183.315 501.294 176.044 504.127 176.044H521.882L545.241 183.315Z" fill="#FDAB76"/>
<path d="M564.705 264.957L560.855 308.86C560.659 310.801 559.757 312.603 558.321 313.924C556.885 315.244 555.014 315.991 553.064 316.023C552.147 316.039 551.237 315.86 550.395 315.497C549.553 315.134 548.798 314.596 548.18 313.918C547.562 313.24 547.096 312.439 546.812 311.566C546.528 310.694 546.434 309.771 546.535 308.86L550.369 264.957C550.725 261.683 550.382 258.371 549.36 255.241C548.339 252.11 546.664 249.233 544.446 246.8C542.228 244.367 539.518 242.434 536.496 241.129C533.473 239.824 530.208 239.177 526.917 239.231H511.226C504.228 239.361 497.519 242.049 492.367 246.789C487.215 251.528 483.976 257.991 483.263 264.957L481.723 282.888H467.387L468.927 264.957C470.867 242.867 490.392 224.905 512.473 224.905H528.164C550.246 224.905 566.66 242.805 564.705 264.957Z" fill="#FDAB76"/>
<path d="M565.736 307.195L558.253 392.813C557.982 395.464 556.75 397.923 554.789 399.725C552.828 401.528 550.275 402.549 547.613 402.595H462.09C460.837 402.618 459.594 402.374 458.443 401.878C457.293 401.383 456.26 400.648 455.415 399.723C454.571 398.797 453.932 397.703 453.543 396.511C453.154 395.32 453.023 394.059 453.159 392.813L460.642 307.257C460.795 305.533 461.357 303.871 462.281 302.408C463.205 300.945 464.464 299.724 465.955 298.846C467.56 297.863 469.401 297.331 471.283 297.306H556.805C558.547 297.299 560.255 297.785 561.733 298.708C563.125 299.608 564.238 300.88 564.946 302.38C565.653 303.88 565.927 305.548 565.736 307.195Z" fill="#FA541C"/>
<path d="M126.806 179.107H71.1561C68.581 179.056 66.1134 178.065 64.2186 176.32C62.3237 174.575 61.1327 172.196 60.87 169.633L56.0041 113.992C55.8652 112.781 55.9873 111.554 56.3622 110.394C56.7372 109.234 57.3562 108.168 58.1776 107.267C58.9991 106.367 60.0039 105.652 61.1243 105.173C62.2448 104.694 63.455 104.46 64.6734 104.488H120.292C122.872 104.539 125.344 105.535 127.239 107.286C129.135 109.038 130.323 111.423 130.578 113.992L135.506 169.633C135.64 170.844 135.514 172.071 135.135 173.229C134.756 174.388 134.134 175.452 133.309 176.349C132.485 177.247 131.478 177.957 130.356 178.433C129.235 178.909 128.024 179.138 126.806 179.107Z" fill="#FEE9D1"/>
<path d="M60.9006 147.403C60.9006 147.403 80.6722 119.845 95.2544 120.553C109.837 121.262 133.966 146.756 133.966 146.756C133.966 146.756 98.3341 165.488 60.9006 147.403Z" fill="#FDAB76"/>
<path d="M61.5934 147.882L60.3461 146.989C61.1468 145.864 80.0252 119.8 94.7769 119.8H95.362C110.083 120.508 133.658 145.186 134.659 146.234L133.535 147.297C133.227 147.035 109.328 122.002 95.208 121.325H94.6845C80.7336 121.309 61.7166 147.589 61.5934 147.882Z" fill="#770508"/>
<path d="M58.837 148.373C55.8497 148.373 51.9847 147.264 50.6143 143.043C50.5829 142.942 50.5718 142.835 50.5815 142.73C50.5913 142.624 50.6217 142.522 50.671 142.428C50.7203 142.335 50.7876 142.252 50.8691 142.184C50.9505 142.116 51.0444 142.065 51.1455 142.034C51.2466 142.003 51.3529 141.991 51.4583 142.001C51.5637 142.011 51.6662 142.041 51.7598 142.091C51.8535 142.14 51.9365 142.207 52.0042 142.289C52.0718 142.37 52.1228 142.464 52.1541 142.565C53.9249 148.018 60.5308 146.709 60.808 146.647C61.0096 146.61 61.2178 146.652 61.3897 146.764C61.5616 146.875 61.6841 147.049 61.7319 147.248C61.7687 147.448 61.7267 147.654 61.6147 147.824C61.5027 147.993 61.3295 148.113 61.1314 148.157C60.3757 148.306 59.6071 148.378 58.837 148.373Z" fill="#770508"/>
<path d="M70.5862 136.543C70.419 136.547 70.2558 136.493 70.1242 136.389C69.8932 136.204 64.4268 131.984 63.0256 127.686C62.9665 127.492 62.9849 127.282 63.0767 127.101C63.1686 126.92 63.3268 126.782 63.5183 126.715C63.7123 126.652 63.9234 126.669 64.1053 126.761C64.2872 126.853 64.425 127.014 64.4884 127.208C65.7357 131.044 71.0019 135.126 71.0635 135.157C71.218 135.286 71.318 135.469 71.3437 135.669C71.3694 135.869 71.3188 136.071 71.2021 136.235C71.1296 136.33 71.0364 136.407 70.9297 136.46C70.823 136.514 70.7055 136.542 70.5862 136.543Z" fill="#770508"/>
<path d="M81.9039 126.055C81.8028 126.053 81.703 126.031 81.6104 125.991C81.5177 125.95 81.434 125.892 81.3639 125.819C81.2939 125.746 81.2388 125.66 81.202 125.565C81.1652 125.471 81.1473 125.371 81.1494 125.269C80.236 121.919 79.1201 118.626 77.8079 115.411C77.4075 114.394 77.1458 113.655 77.0842 113.47C77.0259 113.274 77.0464 113.062 77.1413 112.881C77.2362 112.7 77.398 112.563 77.5923 112.499C77.6894 112.469 77.7915 112.458 77.8928 112.468C77.994 112.478 78.0921 112.509 78.1813 112.557C78.2705 112.606 78.3488 112.673 78.4117 112.753C78.4745 112.833 78.5206 112.925 78.547 113.023C78.547 113.208 78.8704 113.886 79.24 114.856C81.3803 120.509 82.7046 124.222 82.6892 125.3C82.6812 125.503 82.595 125.695 82.4486 125.836C82.3021 125.977 82.1069 126.055 81.9039 126.055Z" fill="#770508"/>
<path d="M95.2542 121.328C95.0602 121.329 94.8732 121.256 94.7304 121.125C94.5877 120.993 94.4998 120.813 94.4843 120.619L93.391 108.296C93.3826 108.195 93.3942 108.093 93.4253 107.996C93.4564 107.899 93.5063 107.81 93.5721 107.732C93.638 107.655 93.7184 107.592 93.8089 107.546C93.8994 107.499 93.9981 107.472 94.0993 107.464C94.2001 107.451 94.3024 107.459 94.3999 107.488C94.4974 107.516 94.5879 107.564 94.666 107.629C94.744 107.694 94.8078 107.775 94.8533 107.866C94.8989 107.956 94.9253 108.056 94.9308 108.157L96.0087 120.573C96.0193 120.674 96.0096 120.775 95.9803 120.872C95.951 120.968 95.9026 121.058 95.838 121.136C95.7734 121.213 95.6939 121.277 95.6042 121.323C95.5145 121.369 95.4164 121.397 95.3158 121.405L95.2542 121.328Z" fill="#770508"/>
<path d="M136.322 147.527C135.569 147.53 134.816 147.468 134.074 147.342C133.876 147.298 133.702 147.178 133.59 147.009C133.478 146.839 133.436 146.633 133.473 146.433C133.491 146.333 133.53 146.238 133.586 146.153C133.642 146.068 133.715 145.995 133.799 145.939C133.884 145.883 133.98 145.844 134.08 145.826C134.18 145.808 134.282 145.81 134.382 145.832C134.382 145.832 138.139 146.556 140.449 144.924C140.945 144.565 141.359 144.104 141.665 143.573C141.97 143.042 142.159 142.452 142.219 141.843C142.235 141.741 142.27 141.644 142.322 141.557C142.375 141.469 142.444 141.393 142.527 141.332C142.609 141.271 142.702 141.227 142.801 141.202C142.901 141.178 143.004 141.173 143.105 141.188C143.206 141.203 143.303 141.238 143.391 141.291C143.478 141.344 143.555 141.413 143.615 141.495C143.676 141.577 143.72 141.671 143.745 141.77C143.77 141.869 143.774 141.973 143.759 142.074C143.669 142.885 143.408 143.668 142.994 144.372C142.58 145.075 142.023 145.683 141.357 146.156C139.856 147.113 138.1 147.591 136.322 147.527Z" fill="#770508"/>
<path d="M122.509 135.728C122.35 135.733 122.193 135.688 122.06 135.6C121.927 135.512 121.825 135.385 121.768 135.236C121.71 135.087 121.7 134.924 121.739 134.77C121.779 134.615 121.865 134.476 121.986 134.373C121.986 134.373 126.605 130.306 127.114 126.516C127.144 126.312 127.255 126.128 127.421 126.006C127.587 125.883 127.795 125.831 127.999 125.862C128.203 125.892 128.387 126.003 128.51 126.169C128.632 126.335 128.684 126.543 128.653 126.747C127.991 131.092 123.187 135.359 123.018 135.559C122.874 135.674 122.694 135.734 122.509 135.728Z" fill="#770508"/>
<path d="M109.483 126.777H109.329C109.228 126.76 109.132 126.724 109.046 126.669C108.96 126.615 108.885 126.545 108.827 126.462C108.768 126.379 108.726 126.285 108.704 126.185C108.682 126.086 108.68 125.983 108.697 125.883C108.697 125.791 110.391 115.886 110.684 113.852C110.718 113.652 110.828 113.472 110.992 113.352C111.156 113.231 111.36 113.179 111.561 113.205C111.662 113.22 111.758 113.255 111.844 113.307C111.931 113.36 112.007 113.429 112.067 113.51C112.127 113.592 112.17 113.684 112.195 113.783C112.219 113.881 112.223 113.983 112.208 114.083C111.9 116.132 110.237 126.053 110.222 126.145C110.185 126.317 110.092 126.472 109.959 126.586C109.825 126.7 109.658 126.767 109.483 126.777Z" fill="#770508"/>
<path d="M109.946 150.623C116.321 143.962 115.592 132.914 108.319 125.949C101.045 118.983 89.9809 118.737 83.6061 125.399C77.2313 132.06 77.9598 143.108 85.2334 150.073C92.5069 157.039 103.571 157.285 109.946 150.623Z" fill="#FA541C"/>
<path opacity="0.24" d="M103.985 138.008C104.024 137.618 104.024 137.226 103.985 136.837C103.785 134.82 102.851 132.948 101.36 131.576C99.8695 130.204 97.9265 129.428 95.9012 129.397C94.9528 129.38 94.0117 129.566 93.1405 129.941C92.2694 130.317 91.4881 130.873 90.8487 131.574C90.2092 132.275 89.7263 133.104 89.4319 134.006C89.1375 134.908 89.0384 135.863 89.1413 136.806C89.1819 137.202 89.254 137.593 89.3569 137.977H79.3325C79.0916 135.757 79.3261 133.511 80.0204 131.388C80.7147 129.266 81.8528 127.316 83.3591 125.667C84.8653 124.019 86.7052 122.711 88.7563 121.829C90.8073 120.947 93.0225 120.513 95.2545 120.554C100.002 120.643 104.553 122.467 108.048 125.682C111.543 128.898 113.741 133.282 114.225 138.008H103.985Z" fill="black"/>
<path opacity="0.24" d="M103.97 136.839C104.008 137.228 104.008 137.621 103.97 138.01C103.844 139.71 103.071 141.296 101.81 142.443C100.55 143.589 98.8976 144.208 97.1944 144.172C95.3925 144.143 93.6494 143.525 92.2313 142.413C90.8133 141.3 89.7983 139.754 89.3412 138.01C89.2384 137.626 89.1663 137.235 89.1257 136.839C89.0179 135.892 89.1138 134.933 89.4069 134.026C89.7001 133.119 90.1837 132.285 90.8253 131.581C91.467 130.876 92.2518 130.317 93.1272 129.941C94.0026 129.564 94.9483 129.38 95.9009 129.399C97.9236 129.434 99.8629 130.212 101.35 131.583C102.838 132.955 103.77 134.825 103.97 136.839Z" fill="black"/>
<path d="M363.971 210.439L364.51 211.071L365.219 211.887C365.727 212.426 366.219 212.996 366.758 213.52C367.805 214.629 368.96 215.707 370.131 216.801C372.474 218.959 374.931 220.99 377.491 222.886C380.093 224.827 382.819 226.598 385.575 228.354C387.115 229.186 388.378 230.064 389.825 230.865L393.167 232.714C393.652 232.929 394.199 232.962 394.706 232.806C395.769 232.483 401.974 226.352 403.945 224.072C408.303 219.066 414.94 212.472 418.497 206.865L422.562 212.365C420.072 219.234 416.752 225.773 412.676 231.836C410.469 235.11 407.827 238.069 404.823 240.632C403.012 242.154 400.969 243.376 398.772 244.252C395.998 245.361 392.95 245.592 390.041 244.914C389.283 244.728 388.541 244.481 387.823 244.175L386.453 243.574L383.958 242.434C382.265 241.695 380.648 240.801 379.015 239.985C375.754 238.239 372.588 236.321 369.53 234.239C366.451 232.125 363.5 229.831 360.691 227.369C359.152 226.09 357.904 224.796 356.58 223.394C355.903 222.696 355.24 221.972 354.594 221.222L353.624 220.051C353.285 219.62 353.023 219.297 352.53 218.634L363.971 210.439Z" fill="#FDBAB9"/>
<path d="M417.958 207.717L425.103 192.436L431.924 204.667C431.924 204.667 427.459 212.369 422.578 212.369L417.958 207.717Z" fill="#FDBAB9"/>
<path d="M433.157 186.087L440.363 195.36L431.925 204.649L425.103 192.434L433.157 186.087Z" fill="#FDBAB9"/>
<path d="M430.647 208.872H441.934C442.256 208.876 442.568 208.758 442.805 208.54C443.043 208.322 443.188 208.022 443.212 207.701L445.599 180.481C445.613 180.304 445.591 180.126 445.534 179.959C445.476 179.791 445.385 179.637 445.265 179.507C445.144 179.376 444.998 179.272 444.836 179.201C444.673 179.13 444.498 179.094 444.32 179.095H432.972C432.652 179.097 432.344 179.218 432.108 179.434C431.872 179.651 431.724 179.947 431.694 180.265L429.322 207.47C429.307 207.651 429.33 207.834 429.391 208.006C429.451 208.177 429.546 208.335 429.671 208.467C429.796 208.599 429.948 208.704 430.116 208.773C430.284 208.843 430.465 208.877 430.647 208.872Z" fill="#FA541C"/>
<path d="M430.031 202.691L432.048 201.659C433.069 201.135 434.013 200.472 434.85 199.687L435.235 198.347C435.019 197.987 434.692 197.707 434.304 197.549C433.915 197.39 433.485 197.362 433.079 197.469L431.401 197.931L423.086 198.563L422.87 202.075L425.303 205.849H426.15C427.069 205.881 427.969 205.578 428.682 204.998C429.396 204.417 429.875 203.598 430.031 202.691Z" fill="#FDBAB9"/>
<path d="M349.543 195.515C355.318 194.468 396.047 229.79 396.047 229.79L383.974 247.505C383.974 247.505 339.427 216.48 340.859 208.994C342.152 201.184 341.059 197.04 349.543 195.515Z" fill="#116E95"/>
<path opacity="0.24" d="M354.609 206.865L354.178 225.351C358.798 228.94 375.49 241.741 375.49 241.741L354.609 206.865Z" fill="#063963"/>
<path d="M322.319 562.677L335.993 564.017L340.32 532.33L326.661 530.99L322.319 562.677Z" fill="#FDBAB9"/>
<path d="M187.86 376.747L184.349 390.057L213.914 402.796L220.027 389.286L187.86 376.747Z" fill="#FDBAB9"/>
<path d="M345.755 566.758C346.931 566.913 348.124 566.652 349.128 566.019C349.35 565.833 349.524 565.595 349.634 565.327C349.744 565.058 349.787 564.767 349.759 564.479C349.751 564.3 349.699 564.127 349.608 563.974C349.516 563.82 349.389 563.692 349.235 563.601C347.572 562.615 341.998 565.264 341.367 565.557C341.312 565.592 341.267 565.64 341.235 565.696C341.202 565.752 341.184 565.816 341.182 565.88C341.195 565.947 341.226 566.008 341.273 566.057C341.319 566.106 341.378 566.141 341.444 566.158C342.86 566.488 344.303 566.689 345.755 566.758ZM348.25 564.001C348.459 563.986 348.669 564.034 348.85 564.14C348.918 564.17 348.974 564.221 349.013 564.284C349.051 564.347 349.07 564.42 349.066 564.494C349.088 564.688 349.063 564.884 348.994 565.067C348.924 565.249 348.811 565.412 348.666 565.542C347.803 566.25 345.586 566.312 342.506 565.726C344.323 564.819 346.281 564.23 348.296 563.986L348.25 564.001Z" fill="#FA541C"/>
<path d="M341.521 566.159H341.628C343.307 565.466 346.633 562.601 346.417 561.03C346.36 560.758 346.211 560.514 345.995 560.34C345.779 560.166 345.509 560.072 345.232 560.074C344.909 560.015 344.576 560.025 344.258 560.105C343.939 560.184 343.641 560.332 343.384 560.537C341.628 561.908 341.197 565.62 341.167 565.759C341.151 565.872 341.179 565.988 341.244 566.082C341.282 566.113 341.327 566.136 341.374 566.149C341.422 566.162 341.472 566.166 341.521 566.159ZM344.924 560.721H345.124C345.709 560.814 345.74 561.045 345.74 561.122C345.878 562.062 343.615 564.342 341.906 565.25C342.064 563.691 342.717 562.222 343.769 561.06C344.097 560.806 344.51 560.685 344.924 560.721Z" fill="#FA541C"/>
<path d="M335.315 558.503L322.996 559.027C322.729 559.029 322.471 559.132 322.275 559.314C322.078 559.496 321.957 559.745 321.934 560.012L318.977 577.204C318.961 577.496 319.002 577.789 319.1 578.066C319.197 578.342 319.348 578.597 319.544 578.815C319.74 579.032 319.978 579.209 320.242 579.334C320.507 579.46 320.794 579.532 321.087 579.545H321.349C326.723 579.268 329.31 578.867 336.116 578.636C340.273 578.498 353.054 580.007 358.751 578.713C364.449 577.419 363.371 571.766 360.923 571.812C353.008 571.966 343.877 566.806 339.365 560.767C338.549 560.259 336.162 558.457 335.315 558.503Z" fill="#063963"/>
<path d="M190.632 391.797L196.914 381.122C197.055 380.896 197.107 380.627 197.062 380.366C197.017 380.104 196.876 379.869 196.668 379.704L183.826 367.889C183.351 367.549 182.761 367.41 182.185 367.502C181.608 367.595 181.091 367.911 180.746 368.382C180.686 368.444 180.639 368.517 180.608 368.598C177.928 373.219 176.85 375.653 173.355 381.507C171.215 385.081 162.976 395.047 161.036 400.485C159.096 405.923 164.347 408.187 165.656 406.061C169.829 399.314 179.099 394.447 186.659 393.877C187.414 393.584 190.216 392.552 190.632 391.797Z" fill="#063963"/>
<path d="M358.197 211.825C366.004 225.103 356.457 236.318 348.496 275.984L297.019 276.123C297.866 254.741 297.774 237.458 288.643 195.388C288.441 194.478 288.421 193.536 288.583 192.618C288.746 191.7 289.088 190.823 289.59 190.037C290.092 189.251 290.744 188.573 291.509 188.04C292.274 187.507 293.137 187.13 294.047 186.931C294.552 186.81 295.069 186.753 295.587 186.762C299.853 186.762 305.196 186.916 310.616 187.455C319.19 188.156 327.705 189.448 336.1 191.321C340.659 192.42 345.139 193.82 349.512 195.511C352.115 196.405 355.318 203.614 358.197 211.825Z" fill="#116E95"/>
<path d="M350.405 278.666C350.405 278.666 379.293 362.266 378.6 402.471C378.199 425.578 376.475 468.418 369.53 498.595C363.864 523.242 340.766 538.955 340.766 538.955L322.288 537.861C322.288 537.861 312.294 500.274 314.034 485.317C317.484 455.54 327.754 433.173 326.522 405.83C324.551 361.064 311.309 277.973 311.309 277.973L350.405 278.666Z" fill="#FA541C"/>
<path opacity="0.24" d="M321.826 447.56C321.826 447.56 321.826 447.406 321.965 447.421C338.364 448.962 349.682 425.346 347.003 393.013L338.287 310.599L321.826 447.56Z" fill="#770508"/>
<path d="M337.44 277.974C337.44 277.974 360.399 424.978 312.587 441.523C287.396 451.074 266.177 440.722 241.077 429.6C226.557 423.176 208.417 405.785 208.417 405.785L215.393 386.791C227.938 383.397 241.066 382.735 253.889 384.85C278.387 388.639 279.404 395.633 288.119 390.365C306.397 345.122 274.923 309.368 296.311 277.912L337.44 277.974Z" fill="#FA541C"/>
<path d="M212.944 250.353C210.619 253.788 198.824 251.462 198.824 251.462L196.329 236.843L210.804 242.651L212.944 250.353Z" fill="#FDBAB9"/>
<path d="M199.224 236.091L201.488 251.28L192.772 252.574C192.302 252.614 191.833 252.478 191.455 252.194C191.077 251.91 190.817 251.497 190.724 251.034L187.398 240.158C187.342 239.905 187.386 239.64 187.521 239.419C187.656 239.198 187.872 239.038 188.122 238.972L199.224 236.091Z" fill="#FDBAB9"/>
<path d="M195.344 242.976L200.318 243.854L204.937 240.326L203.12 239.032C201.895 238.153 201.034 236.854 200.703 235.381C200.346 233.839 200.134 232.266 200.071 230.683V230.159C200.012 229.695 199.802 229.263 199.474 228.929C199.146 228.595 198.717 228.378 198.254 228.311L197.022 229.22C196.237 230.899 196.791 232.855 196.699 234.165L196.499 236.706L194.512 237.569L195.344 242.976Z" fill="#FDBAB9"/>
<path d="M291.137 192.556L262.003 232.607L208.463 243.128V251.909C208.463 251.909 258.754 255.637 270.057 249.059C281.359 242.481 300.268 202.569 300.268 202.569L291.137 192.556Z" fill="#FDBAB9"/>
<path d="M290.798 115.531C278.572 111.433 264.39 119.027 258.785 130.642C253.18 142.257 255.151 156.506 261.449 167.752C263.343 171.156 265.622 174.36 267.162 177.919C268.899 181.444 269.277 185.485 268.224 189.272C266.977 192.953 265.668 195.31 261.11 194.725C261.11 194.725 261.11 192.199 262.85 192.507C262.85 192.507 259.17 194.555 257.723 193.215C259.386 195.803 263.882 194.864 265.299 192.122C267.454 188.039 263.497 182.509 258.878 182.555C254.258 182.602 250.516 187.285 250.655 191.89C250.849 194.194 251.669 196.4 253.026 198.271C254.383 200.141 256.226 201.605 258.354 202.504C257.106 202.705 255.827 202.489 254.714 201.89C253.601 201.292 252.716 200.344 252.195 199.192C254.289 204.676 261.141 207.095 266.9 206.016C272.659 204.938 277.571 201.241 282.083 197.498C288.242 192.445 294.54 186.052 294.402 178.15C294.263 172.25 290.475 167.182 287.288 162.206C284.1 157.23 281.313 151.161 283.33 145.631C285.055 141.01 289.69 138.098 293.801 135.233C296.758 133.184 302.748 128.609 302.039 124.28C301.331 120.152 294.248 116.624 290.798 115.531Z" fill="#063963"/>
<path d="M263.312 252.636L255.244 231.27L257.091 231.424C258.586 231.546 260.084 231.236 261.408 230.531C262.731 229.827 263.825 228.757 264.56 227.45C270.719 216.482 286.626 188.646 291.106 187.26C297.497 185.365 304.072 190.479 306.505 198.043C308.322 203.604 289.567 227.45 280.897 241.006C273.183 252.96 263.312 252.636 263.312 252.636Z" fill="#116E95"/>
<path d="M184.534 398.821V398.975C184.648 399.271 184.834 399.534 185.077 399.739C185.319 399.943 185.609 400.083 185.92 400.146C186.107 400.206 186.306 400.216 186.498 400.176C186.689 400.135 186.867 400.045 187.013 399.914C188.322 398.728 187.491 393.753 187.414 393.26C187.403 393.197 187.374 393.138 187.33 393.091C187.287 393.045 187.23 393.012 187.167 392.998C187.105 392.989 187.042 392.996 186.983 393.017C186.924 393.039 186.871 393.074 186.829 393.121C185.782 394.615 184.119 397.249 184.534 398.821ZM186.906 394.199C187.198 396.171 187.306 398.821 186.598 399.468C186.529 399.522 186.448 399.557 186.361 399.571C186.275 399.584 186.187 399.575 186.105 399.545C185.896 399.506 185.701 399.415 185.537 399.28C185.373 399.145 185.245 398.972 185.166 398.774C184.904 397.943 185.474 396.248 186.906 394.246V394.199Z" fill="#FA541C"/>
<path d="M186.875 393.924C187.29 395.588 188.846 398.437 190.231 398.761C190.486 398.81 190.75 398.773 190.981 398.656C191.212 398.539 191.398 398.348 191.51 398.114C191.615 397.887 191.67 397.64 191.67 397.39C191.67 397.14 191.615 396.893 191.51 396.666C190.878 394.756 187.244 393.185 187.09 393.107C187.041 393.081 186.985 393.066 186.928 393.066C186.872 393.066 186.816 393.081 186.767 393.107C186.727 393.148 186.696 393.196 186.674 393.249C186.653 393.302 186.643 393.359 186.644 393.416C186.711 393.589 186.789 393.759 186.875 393.924ZM191.063 397.005C191.101 397.139 191.11 397.281 191.089 397.419C191.068 397.557 191.017 397.689 190.94 397.806C190.74 398.176 190.539 398.176 190.385 398.145C189.431 397.96 187.999 395.634 187.537 394.016C188.722 394.617 190.616 395.742 191.017 396.912V397.005H191.063Z" fill="#FA541C"/>
<path d="M296.834 273.521L295.418 278.527C295.218 278.912 295.68 279.313 296.326 279.297H349.435C349.638 279.328 349.845 279.288 350.021 279.184C350.198 279.081 350.334 278.919 350.405 278.727L350.898 273.721C350.898 273.382 350.482 273.074 349.928 273.089H297.743C297.567 273.075 297.39 273.107 297.231 273.183C297.071 273.258 296.934 273.375 296.834 273.521Z" fill="#FDAB76"/>
<path d="M306.982 279.775H305.442C305.149 279.775 304.918 279.621 304.949 279.436L305.642 272.92C305.642 272.735 305.919 272.581 306.227 272.581H307.767C308.06 272.581 308.306 272.735 308.275 272.935L307.582 279.436C307.536 279.605 307.274 279.775 306.982 279.775Z" fill="#FA541C"/>
<path d="M345.324 279.762H343.784C343.491 279.762 343.26 279.608 343.276 279.423L343.969 272.923C343.969 272.722 344.261 272.568 344.554 272.568H346.094C346.386 272.568 346.617 272.722 346.602 272.907L345.909 279.408C345.894 279.608 345.632 279.762 345.324 279.762Z" fill="#FA541C"/>
<path d="M327.77 279.732H326.23C325.937 279.732 325.706 279.578 325.737 279.393L326.43 272.892C326.43 272.692 326.707 272.538 327 272.538H328.54C328.832 272.538 329.079 272.692 329.048 272.877L328.355 279.378C328.324 279.578 328.078 279.732 327.77 279.732Z" fill="#FA541C"/>
<path d="M312.987 159.418C314.62 167.813 316.221 182.971 310.539 187.531C310.539 187.531 312.803 196.142 328.032 198.437C344.847 200.979 336.023 191.398 336.023 191.398C326.877 187.762 327.092 181.138 328.678 175.038L312.987 159.418Z" fill="#FDBAB9"/>
<path d="M310.585 187.457C318.701 187.971 326.767 189.094 334.715 190.815L346.248 194.25C348.296 198.378 344.939 206.866 335.284 208.484C335.284 208.484 311.001 211.826 303.841 186.81L310.585 187.457Z" fill="#FDBAB9"/>
<path opacity="0.24" d="M319.378 165.814L328.617 175.057C328.23 176.489 327.972 177.954 327.847 179.432C324.351 178.4 318.716 174.533 318.331 170.836C318.336 169.109 318.692 167.4 319.378 165.814Z" fill="black"/>
<path d="M302.717 148.822C306.828 161.854 308.291 167.461 316.729 172.591C329.341 180.293 344.446 172.406 344.308 158.418C344.185 145.818 337.486 126.624 323.166 124.529C320.023 124.06 316.812 124.404 313.839 125.527C310.866 126.65 308.229 128.515 306.18 130.945C304.13 133.375 302.736 136.289 302.13 139.41C301.524 142.53 301.726 145.755 302.717 148.775V148.822Z" fill="#FDBAB9"/>
<path d="M333.791 146.788C335.257 149.073 337.029 151.146 339.057 152.95C338.582 153.463 338.002 153.866 337.356 154.132C336.709 154.398 336.013 154.52 335.315 154.49L333.791 146.788Z" fill="#FF928E"/>
<path d="M332.328 161.456C332.848 161.397 333.362 161.299 333.868 161.164C333.949 161.142 334.018 161.09 334.061 161.018C334.104 160.946 334.118 160.86 334.099 160.779C334.077 160.698 334.025 160.628 333.953 160.585C333.881 160.542 333.795 160.529 333.714 160.548C332.386 160.928 330.987 160.987 329.632 160.719C328.277 160.451 327.005 159.864 325.922 159.007C325.859 158.948 325.775 158.916 325.688 158.919C325.601 158.922 325.519 158.959 325.46 159.023C325.401 159.086 325.369 159.17 325.372 159.257C325.375 159.343 325.412 159.425 325.476 159.485C326.43 160.251 327.528 160.82 328.704 161.158C329.88 161.497 331.112 161.598 332.328 161.456Z" fill="#063963"/>
<path d="M298.236 122.804C296.54 123.904 295.131 125.393 294.126 127.148C293.122 128.903 292.551 130.873 292.462 132.894C292.399 133.666 292.52 134.442 292.816 135.158C292.973 135.511 293.218 135.817 293.529 136.046C293.839 136.276 294.203 136.421 294.587 136.467C295.757 136.467 296.619 135.42 297.266 134.434L300.238 129.813C301.462 128.307 302.496 126.657 303.317 124.899C304.318 121.864 300.053 121.694 298.236 122.804Z" fill="#FA541C"/>
<path d="M299.699 125.872C291.507 135.33 287.857 161.502 311.802 168.804C315.805 165.631 309.338 159.854 306.597 152.552C304.811 147.777 313.927 138.858 317.484 135.191C321.041 131.525 324.321 126.241 329.356 127.089C330.63 127.515 332.002 127.552 333.298 127.196C337.271 125.394 335.346 123.006 333.298 121.343C330.156 119.019 326.417 117.641 322.519 117.368C318.313 116.869 314.049 117.38 310.081 118.859C306.112 120.338 302.553 122.742 299.699 125.872Z" fill="#063963"/>
<path d="M326.292 122.696C335.9 130.722 323.212 130.922 316.483 136.006C309.754 141.089 314.543 148.884 303.641 152.596C294.725 155.2 292.662 153.644 290.182 151.903C293.242 151.383 296.044 149.862 298.147 147.58C300.251 145.297 301.539 142.38 301.808 139.287C302.547 133.433 315.282 113.392 326.292 122.696Z" fill="#063963"/>
<path d="M301.254 159.778C302.762 161.951 305.062 163.444 307.66 163.937C311.109 164.538 312.433 161.38 311.247 158.299C310.139 155.526 306.997 151.875 303.671 152.661C303.101 152.807 302.565 153.063 302.094 153.416C301.623 153.769 301.226 154.211 300.925 154.718C300.625 155.224 300.428 155.785 300.344 156.367C300.26 156.95 300.292 157.544 300.438 158.114C300.595 158.718 300.872 159.284 301.254 159.778Z" fill="#FDBAB9"/>
<path d="M324.628 123.512C326.492 128.257 331.866 127.625 335.854 132.585C338.287 135.666 343.091 126.162 336.562 122.418C330.033 118.675 321.703 116.087 324.628 123.512Z" fill="#063963"/>
<path d="M318.977 143.536C319.112 143.553 319.249 143.524 319.366 143.454C319.483 143.384 319.574 143.278 319.624 143.151C320.902 140.347 324.69 139.639 324.721 139.639C324.889 139.605 325.037 139.508 325.135 139.367C325.232 139.226 325.272 139.053 325.244 138.884C325.207 138.715 325.107 138.566 324.964 138.469C324.82 138.371 324.645 138.333 324.474 138.36C324.29 138.36 319.963 139.269 318.438 142.658C318.402 142.735 318.381 142.818 318.377 142.903C318.372 142.988 318.385 143.073 318.413 143.153C318.442 143.233 318.486 143.307 318.543 143.37C318.6 143.433 318.669 143.484 318.746 143.521H318.977V143.536Z" fill="#063963"/>
<path d="M338.995 137.873C339.108 137.881 339.221 137.858 339.321 137.806C339.422 137.755 339.506 137.677 339.565 137.58C339.66 137.439 339.695 137.266 339.664 137.099C339.632 136.931 339.536 136.783 339.396 136.687C338.543 136.096 337.56 135.719 336.531 135.587C335.502 135.456 334.457 135.574 333.483 135.932C333.391 135.957 333.306 136.001 333.233 136.062C333.159 136.123 333.1 136.199 333.059 136.285C333.018 136.37 332.996 136.464 332.994 136.559C332.993 136.654 333.011 136.749 333.049 136.836C333.087 136.923 333.144 137.001 333.214 137.064C333.285 137.128 333.369 137.175 333.46 137.204C333.55 137.232 333.646 137.24 333.741 137.228C333.835 137.216 333.925 137.184 334.006 137.133C334.772 136.866 335.591 136.785 336.394 136.897C337.198 137.01 337.963 137.313 338.626 137.78C338.74 137.839 338.867 137.871 338.995 137.873Z" fill="#063963"/>
<path d="M338.364 143.09C339.103 142.952 339.904 143.784 340.073 144.923C340.243 146.063 339.827 147.111 339.088 147.234C338.349 147.357 337.548 146.541 337.379 145.401C337.209 144.261 337.625 143.26 338.364 143.09Z" fill="#063963"/>
<path d="M340.643 141.968L338.041 143.246C339.611 144.355 340.643 141.968 340.643 141.968Z" fill="#063963"/>
<path d="M325.475 145.744C326.215 145.605 327.015 146.437 327.185 147.577C327.354 148.717 326.938 149.764 326.199 149.887C325.46 150.011 324.659 149.194 324.49 148.054C324.321 146.914 324.736 145.882 325.475 145.744Z" fill="#063963"/>
<path d="M327.754 144.615L325.152 145.894C326.723 147.003 327.754 144.615 327.754 144.615Z" fill="#063963"/>
<path d="M260.325 204.678C258.87 204.686 257.427 204.414 256.075 203.877C251.317 201.92 249.084 196.96 249.916 190.244C249.927 190.143 249.959 190.045 250.008 189.957C250.058 189.868 250.126 189.791 250.206 189.729C250.287 189.667 250.379 189.622 250.477 189.597C250.575 189.571 250.678 189.566 250.778 189.581C250.98 189.608 251.163 189.714 251.287 189.876C251.411 190.037 251.466 190.242 251.44 190.444C250.639 196.405 252.518 200.78 256.583 202.444C258.953 203.253 261.517 203.294 263.911 202.561C266.305 201.828 268.407 200.359 269.918 198.362C273.768 193.201 272.521 185.9 266.484 178.336C250.716 158.541 251.779 148.02 253.996 139.702C257.23 127.624 266.715 113.791 293.493 116.456C293.594 116.464 293.692 116.492 293.782 116.538C293.871 116.584 293.951 116.648 294.015 116.726C294.08 116.803 294.128 116.893 294.158 116.99C294.187 117.086 294.197 117.188 294.186 117.288C294.178 117.389 294.151 117.487 294.104 117.577C294.058 117.666 293.994 117.746 293.917 117.81C293.839 117.875 293.75 117.924 293.653 117.953C293.556 117.982 293.455 117.992 293.355 117.981C267.732 115.409 258.693 128.595 255.613 140.087C253.38 148.405 252.533 158.125 267.809 177.365C277.048 188.965 273.306 196.559 271.273 199.271C269.982 200.948 268.324 202.308 266.426 203.245C264.529 204.183 262.441 204.672 260.325 204.678Z" fill="#063963"/>
</svg>